<svg width="54" height="36" viewBox="0 0 54 36" fill="none" xmlns="http://www.w3.org/2000/svg">
<g clip-path="url(#clip0_748_8823)">
<path d="M22.4752 35.795H17.9009V21.5149C17.9009 20.6264 17.8592 19.6326 17.7757 18.5443C17.7041 17.4969 17.499 16.4631 17.1655 15.4685C16.8617 14.5547 16.3405 13.7297 15.6477 13.0657C14.889 12.3875 13.8958 12.0381 12.8832 12.093C11.8355 12.0714 10.7931 12.2498 9.81108 12.6188C9.05267 12.9021 8.34727 13.3128 7.72473 13.8333C7.26445 14.1979 6.90517 14.676 6.68156 15.2214C6.59958 15.3932 6.5655 15.5843 6.58296 15.7741C6.60041 15.964 6.66875 16.1455 6.78066 16.2992C6.95557 16.4926 7.18801 16.6236 7.44308 16.6725C7.75603 16.7566 8.10549 16.8302 8.48625 16.8986L9.73806 17.0931C10.1692 17.1583 10.5911 17.2748 10.9951 17.4401C12.0443 17.8453 12.9452 18.5646 13.5769 19.5012C14.2237 20.4557 14.6823 21.5267 14.9279 22.6559C15.1896 23.8264 15.2897 25.0278 15.2252 26.2259C15.1891 27.3293 14.9632 28.4181 14.5575 29.4436C13.8548 31.2863 12.7053 32.9222 11.2142 34.2019C9.89489 35.4029 8.16625 36.0434 6.38947 35.9896C4.94989 35.9925 3.55009 35.5135 2.40975 34.6278C1.42027 33.8204 0.693557 32.7325 0.323401 31.5047C-0.0570874 30.1983 -0.100177 28.8156 0.19822 27.4877C0.509078 26.0205 1.15564 24.6468 2.08637 23.4761C3.1694 22.143 4.52979 21.066 6.0713 20.3214C8.00504 19.4054 10.1105 18.916 12.2469 18.886C12.3567 18.8445 12.474 18.8265 12.5911 18.8334C12.0771 18.3922 11.4959 18.0371 10.8699 17.7819C10.2524 17.5512 9.6067 17.4062 8.95046 17.3508C8.30388 17.2886 7.65374 17.2728 7.00494 17.3034C6.3999 17.335 5.85745 17.3876 5.3828 17.4507C4.90816 17.5137 4.60564 17.5663 4.47524 17.6031C4.40301 16.9847 4.55088 16.3606 4.89251 15.8418C5.32443 15.0976 5.89051 14.4414 6.56159 13.9069C7.37674 13.2526 8.29069 12.7343 9.26863 12.3716C10.425 11.9409 11.6506 11.7306 12.8832 11.7512C14.2503 11.711 15.6104 11.9637 16.8734 12.4926C17.8927 12.9489 18.7875 13.647 19.4813 14.5273C20.1745 15.4425 20.6606 16.4995 20.9053 17.6242C21.1945 18.9003 21.3362 20.2059 21.3277 21.5149V31.5468C21.3166 32.2098 21.3585 32.8727 21.4529 33.5289C21.51 33.9334 21.6223 34.328 21.7867 34.7014C21.8694 34.9081 22.0043 35.0893 22.1779 35.2272C22.2648 35.2931 22.3673 35.3348 22.4752 35.3481V35.795ZM12.9354 19.2383C11.6808 19.2295 10.431 19.3958 9.22169 19.7325C8.11318 20.034 7.07572 20.556 6.1704 21.2678C5.28362 21.9707 4.56966 22.8703 4.08405 23.8967C3.5526 25.0611 3.29213 26.3326 3.32253 27.6139C3.32153 28.3208 3.39497 29.0258 3.5416 29.717C3.68635 30.3971 3.93629 31.0501 4.28225 31.6519C4.61929 32.2403 5.06138 32.7608 5.58622 33.1872C6.14014 33.6328 6.80006 33.9246 7.50045 34.0337C8.235 34.2001 9.00031 34.1656 9.7172 33.9338C10.4058 33.7028 11.0524 33.3601 11.6314 32.919C12.236 32.4697 12.7645 31.9246 13.1962 31.3049C13.6201 30.7047 13.9704 30.0551 14.2394 29.37C14.5507 28.5466 14.7643 27.6888 14.8757 26.8148C14.9912 25.9094 14.9999 24.9934 14.9018 24.086C14.8091 23.1841 14.5932 22.2994 14.2602 21.4571C13.9386 20.6511 13.4914 19.9021 12.9354 19.2383Z" fill="white"/>
<path d="M30.6381 35.7949H24.9319V35.348C25.0398 35.3347 25.1423 35.293 25.2292 35.2271C25.3998 35.091 25.5283 34.9086 25.5996 34.7013C25.7412 34.323 25.8477 33.9323 25.9177 33.5341C26.0342 32.8783 26.0883 32.2128 26.0794 31.5467V4.26406C26.0349 3.66887 25.8565 3.09171 25.5578 2.57631C25.3457 2.31342 25.1719 2.18198 25.0362 2.18198L24.8902 1.73507L29.5063 0V31.5467C29.4951 32.2097 29.537 32.8726 29.6314 33.5288C29.686 33.9321 29.793 34.3263 29.9496 34.7013C30.032 34.9096 30.169 35.0913 30.346 35.2271C30.4315 35.2919 30.5321 35.3336 30.6381 35.348V35.7949Z" fill="white"/>
<path d="M54 35.7949H49.4257V23.0027C49.2212 24.3735 48.9426 25.732 48.5911 27.0722C48.3011 28.1904 47.9244 29.2838 47.4645 30.3425C47.132 31.0451 46.7539 31.7249 46.3327 32.3773C45.9112 33.0322 45.4159 33.6356 44.8566 34.1755C44.3024 34.707 43.6709 35.1503 42.9841 35.4899C42.285 35.8235 41.5199 35.9925 40.7465 35.9841C39.5976 36.0377 38.459 35.7448 37.4761 35.1429C36.6377 34.599 35.9474 33.8526 35.468 32.9714C34.984 32.0309 34.6563 31.0167 34.4978 29.9692C34.3212 28.8529 34.2322 27.7242 34.2318 26.5937V16.1623C34.2433 15.5035 34.1926 14.8451 34.0806 14.1959C34.0126 13.8058 33.906 13.4236 33.7624 13.055C33.6818 12.8527 33.5549 12.6726 33.3921 12.5292C33.3106 12.4531 33.2092 12.4021 33.1 12.382V11.9351H37.6743V26.5727C37.6743 27.1686 37.7056 27.8889 37.7682 28.7337C37.8352 29.5702 37.9766 30.399 38.1907 31.2101C38.386 31.9898 38.6991 32.7346 39.1191 33.4183C39.4895 34.0229 40.0516 34.4837 40.7143 34.7261C41.3769 34.9685 42.1014 34.9783 42.7702 34.7538C43.4425 34.5153 44.0587 34.1394 44.5801 33.6497C45.1285 33.1459 45.6169 32.5795 46.0354 31.9619C46.4275 31.3954 46.7763 30.7995 47.0785 30.1795C47.8819 28.3143 48.4598 26.3583 48.7998 24.3539C49.2567 21.643 49.4697 18.8961 49.4361 16.1465C49.4445 15.4928 49.3921 14.8398 49.2796 14.1959C49.2117 13.8058 49.1051 13.4236 48.9615 13.055C48.8809 12.8527 48.754 12.6726 48.5911 12.5292C48.5084 12.452 48.405 12.4008 48.2938 12.382V11.9351H52.8682V31.5466C52.8571 32.2096 52.8989 32.8725 52.9933 33.5287C53.0483 33.9302 53.1553 34.3226 53.3115 34.696C53.3957 34.9032 53.5324 35.0845 53.7079 35.2218C53.7934 35.2866 53.894 35.3282 54 35.3427V35.7949Z" fill="white"/>
</g>
<defs>
<clipPath id="clip0_748_8823">
<rect width="54" height="36" fill="white"/>
</clipPath>
</defs>
</svg>
